<?xml version="1.0" encoding="UTF-8"?>
<svg width="116px" height="116px" viewBox="0 0 116 116" version="1.1" xmlns="http://www.w3.org/2000/svg" xmlns:xlink="http://www.w3.org/1999/xlink">
    <!-- Generator: Sketch 55.1 (78136) - https://sketchapp.com -->
    <title>appointment</title>
    <desc>Created with Sketch.</desc>
    <g id="Light" stroke="none" stroke-width="1" fill="none" fill-rule="evenodd">
        <g id="Login-1" transform="translate(-364.000000, -265.000000)" fill="#FFFFFF" fill-rule="nonzero">
            <g id="appointment" transform="translate(364.000000, 265.000000)">
                <path d="M104.671875,9.96875 C110.918203,9.96875 116,15.0505469 116,21.296875 L116,107.389266 C116,112.137336 112.137109,116 107.389266,116 L8.609375,116 C3.86221094,116 0,112.137789 0,107.390625 L0,101.52832 C0,100.277016 1.01454687,99.2626953 2.265625,99.2626953 L8.39391406,99.2626953 C4.43496094,95.8531563 1.92102344,90.809875 1.92102344,85.1875 C1.92102344,74.9434766 10.255125,66.609375 20.4991484,66.609375 C30.7431719,66.609375 39.0772734,74.9434766 39.0772734,85.1875 C39.0772734,90.809875 36.5633359,95.8531563 32.6043828,99.2626953 L55.2416016,99.2626953 C56.4926797,99.2626953 57.5072266,100.277016 57.5072266,101.52832 C57.5072266,102.779625 56.4926797,103.793945 55.2416016,103.793945 L4.53125,103.793945 L4.53125,107.390625 C4.53125,109.639258 6.36074219,111.46875 8.609375,111.46875 L99.8082578,111.46875 C99.1519062,110.253695 98.7785312,108.864414 98.7785312,107.389266 L98.7785312,103.793945 L74.6901797,103.793945 C73.4391016,103.793945 72.4245547,102.779625 72.4245547,101.52832 C72.4245547,100.277016 73.4391016,99.2626953 74.6901797,99.2626953 L101.044156,99.2626953 C102.295234,99.2626953 103.309781,100.277016 103.309781,101.52832 L103.309781,107.389266 C103.309781,109.638578 105.139727,111.46875 107.389266,111.46875 C109.638805,111.46875 111.46875,109.638578 111.46875,107.389266 L111.46875,21.296875 C111.46875,17.5490781 108.419672,14.5 104.671875,14.5 L93.8723203,14.5 L93.8723203,17.3320312 C93.8723203,21.0798281 90.8232422,24.1289062 87.0754453,24.1289062 C83.3276484,24.1289062 80.2785703,21.0798281 80.2785703,17.3320312 L80.2785703,14.5 L42.2160703,14.5 L42.2160703,17.3320312 C42.2160703,21.0798281 39.1669922,24.1289062 35.4191953,24.1289062 C31.6713984,24.1289062 28.6223203,21.0798281 28.6223203,17.3320312 L28.6223203,14.4161719 C28.4297422,14.4691875 28.227875,14.5 28.0183047,14.5 L18.9911484,14.5 C15.2433516,14.5 12.1942734,17.5490781 12.1942734,21.296875 L12.1942734,28.7734375 L93.8723203,28.7734375 C95.1233984,28.7734375 96.1379453,29.7877578 96.1379453,31.0390625 C96.1379453,32.2903672 95.1233984,33.3046875 93.8723203,33.3046875 L12.1942734,33.3046875 L12.1942734,59.8879453 C12.1942734,61.13925 11.1797266,62.1535703 9.92864844,62.1535703 C8.67757031,62.1535703 7.66302344,61.13925 7.66302344,59.8879453 L7.66302344,21.296875 C7.66302344,15.0505469 12.7448203,9.96875 18.9911484,9.96875 L28.0183047,9.96875 C28.227875,9.96875 28.4297422,9.99933594 28.6223203,10.0525781 L28.6223203,6.796875 C28.6223203,3.04907812 31.6713984,0 35.4191953,0 C39.1669922,0 42.2160703,3.04907812 42.2160703,6.796875 L42.2160703,9.96875 L80.2785703,9.96875 L80.2785703,6.796875 C80.2785703,3.04907812 83.3276484,0 87.0754453,0 C90.8232422,0 93.8723203,3.04907812 93.8723203,6.796875 L93.8723203,9.96875 L104.671875,9.96875 Z M37.6848203,17.3320313 L37.6848203,6.796875 C37.6848203,5.54760938 36.6684609,4.53125 35.4191953,4.53125 C34.1699297,4.53125 33.1535703,5.54760938 33.1535703,6.796875 L33.1535703,17.3320313 C33.1535703,18.5812969 34.1699297,19.5976563 35.4191953,19.5976563 C36.6684609,19.5976563 37.6848203,18.5812969 37.6848203,17.3320313 Z M89.3410703,17.3320313 L89.3410703,6.796875 C89.3410703,5.54760938 88.3247109,4.53125 87.0754453,4.53125 C85.8261797,4.53125 84.8098203,5.54760938 84.8098203,6.796875 L84.8098203,17.3320313 C84.8098203,18.5812969 85.8261797,19.5976563 87.0754453,19.5976563 C88.3247109,19.5976563 89.3410703,18.5812969 89.3410703,17.3320313 Z M6.45227344,85.1875 C6.45227344,92.9329922 12.7536562,99.234375 20.4991484,99.234375 C28.2446406,99.234375 34.5460234,92.9329922 34.5460234,85.1875 C34.5460234,77.4420078 28.2446406,71.140625 20.4991484,71.140625 C12.7536562,71.140625 6.45227344,77.4420078 6.45227344,85.1875 Z M104.499687,33.3046875 C103.903602,33.3046875 103.319523,33.0622656 102.897891,32.6408594 C102.476258,32.2194531 102.234062,31.6349219 102.234062,31.0390625 C102.234062,30.4432031 102.476484,29.8586719 102.897891,29.4372656 C103.319297,29.0158594 103.903602,28.7734375 104.499687,28.7734375 C105.095547,28.7734375 105.680078,29.0158594 106.101258,29.4372656 C106.522891,29.8586719 106.765312,30.4432031 106.765312,31.0390625 C106.765312,31.6349219 106.522664,32.2194531 106.101258,32.6408594 C105.680078,33.0622656 105.095547,33.3046875 104.499687,33.3046875 Z M64.4592969,99.9253906 C64.8807031,99.5039844 65.4652344,99.2638281 66.0610938,99.2638281 C66.6569531,99.2638281 67.2414844,99.5039844 67.6626641,99.9253906 C68.0842969,100.349063 68.3267188,100.931328 68.3267188,101.527188 C68.3267188,102.123047 68.0840703,102.707578 67.6626641,103.13125 C67.2414844,103.552656 66.6569531,103.792813 66.0610938,103.792813 C65.4652344,103.792813 64.8807031,103.552656 64.4592969,103.13125 C64.0376641,102.707578 63.7954688,102.125313 63.7954688,101.527188 C63.7954688,100.931328 64.0378906,100.349063 64.4592969,99.9253906 Z M51.2586328,86.09375 C46.5114688,86.09375 42.6492578,82.2315391 42.6492578,77.484375 C42.6492578,72.7372109 46.5114688,68.875 51.2586328,68.875 C56.0057969,68.875 59.8680078,72.7372109 59.8680078,77.484375 C59.8680078,82.2315391 56.0057969,86.09375 51.2586328,86.09375 Z M51.2586328,73.40625 C49.01,73.40625 47.1805078,75.2357422 47.1805078,77.484375 C47.1805078,79.7330078 49.01,81.5625 51.2586328,81.5625 C53.5072656,81.5625 55.3367578,79.7330078 55.3367578,77.484375 C55.3367578,75.2357422 53.5072656,73.40625 51.2586328,73.40625 Z M72.4043906,86.09375 C67.6572266,86.09375 63.7950156,82.2315391 63.7950156,77.484375 C63.7950156,72.7372109 67.6572266,68.875 72.4043906,68.875 C77.1515547,68.875 81.0137656,72.7372109 81.0137656,77.484375 C81.0137656,82.2315391 77.1515547,86.09375 72.4043906,86.09375 Z M72.4043906,73.40625 C70.1557578,73.40625 68.3262656,75.2357422 68.3262656,77.484375 C68.3262656,79.7330078 70.1557578,81.5625 72.4043906,81.5625 C74.6530234,81.5625 76.4825156,79.7330078 76.4825156,77.484375 C76.4825156,75.2357422 74.6530234,73.40625 72.4043906,73.40625 Z M93.550375,86.09375 C88.8032109,86.09375 84.941,82.2315391 84.941,77.484375 C84.941,72.7372109 88.8032109,68.875 93.550375,68.875 C98.2975391,68.875 102.15975,72.7372109 102.15975,77.484375 C102.15975,82.2315391 98.2975391,86.09375 93.550375,86.09375 Z M93.550375,73.40625 C91.3017422,73.40625 89.47225,75.2357422 89.47225,77.484375 C89.47225,79.7330078 91.3017422,81.5625 93.550375,81.5625 C95.7990078,81.5625 97.6285,79.7330078 97.6285,77.484375 C97.6285,75.2357422 95.7990078,73.40625 93.550375,73.40625 Z M38.72225,53.921875 C38.72225,58.6690391 34.8600391,62.53125 30.112875,62.53125 C25.3657109,62.53125 21.5035,58.6690391 21.5035,53.921875 C21.5035,49.1747109 25.3657109,45.3125 30.112875,45.3125 C34.8600391,45.3125 38.72225,49.1747109 38.72225,53.921875 Z M26.03475,53.921875 C26.03475,56.1705078 27.8642422,58 30.112875,58 C32.3615078,58 34.191,56.1705078 34.191,53.921875 C34.191,51.6732422 32.3615078,49.84375 30.112875,49.84375 C27.8642422,49.84375 26.03475,51.6732422 26.03475,53.921875 Z M72.4043906,62.53125 C67.6572266,62.53125 63.7950156,58.6690391 63.7950156,53.921875 C63.7950156,49.1747109 67.6572266,45.3125 72.4043906,45.3125 C77.1515547,45.3125 81.0137656,49.1747109 81.0137656,53.921875 C81.0137656,58.6690391 77.1515547,62.53125 72.4043906,62.53125 Z M72.4043906,49.84375 C70.1557578,49.84375 68.3262656,51.6732422 68.3262656,53.921875 C68.3262656,56.1705078 70.1557578,58 72.4043906,58 C74.6530234,58 76.4825156,56.1705078 76.4825156,53.921875 C76.4825156,51.6732422 74.6530234,49.84375 72.4043906,49.84375 Z M93.550375,62.53125 C88.8032109,62.53125 84.941,58.6690391 84.941,53.921875 C84.941,49.1747109 88.8032109,45.3125 93.550375,45.3125 C98.2975391,45.3125 102.15975,49.1747109 102.15975,53.921875 C102.15975,58.6690391 98.2975391,62.53125 93.550375,62.53125 Z M93.550375,49.84375 C91.3017422,49.84375 89.47225,51.6732422 89.47225,53.921875 C89.47225,56.1705078 91.3017422,58 93.550375,58 C95.7990078,58 97.6285,56.1705078 97.6285,53.921875 C97.6285,51.6732422 95.7990078,49.84375 93.550375,49.84375 Z M51.2586328,62.53125 C46.5114688,62.53125 42.6492578,58.6690391 42.6492578,53.921875 C42.6492578,49.1747109 46.5114688,45.3125 51.2586328,45.3125 C56.0057969,45.3125 59.8680078,49.1747109 59.8680078,53.921875 C59.8680078,58.6690391 56.0057969,62.53125 51.2586328,62.53125 Z M51.2586328,49.84375 C49.01,49.84375 47.1805078,51.6732422 47.1805078,53.921875 C47.1805078,56.1705078 49.01,58 51.2586328,58 C53.5072656,58 55.3367578,56.1705078 55.3367578,53.921875 C55.3367578,51.6732422 53.5072656,49.84375 51.2586328,49.84375 Z M16.3859062,91.8504766 L12.2622422,87.7272656 C11.3775156,86.8423125 11.3775156,85.4077188 12.2622422,84.5229922 C13.1474219,83.6382656 14.5815625,83.6382656 15.4665156,84.5229922 L17.9879297,87.0444063 L25.3661641,79.6659453 C26.2513437,78.7812188 27.6854844,78.7812188 28.5704375,79.6659453 C29.4551641,80.5506719 29.4551641,81.9852656 28.5704375,82.8699922 L19.5899531,91.8504766 C19.1649219,92.2752813 18.5887734,92.5140781 17.9879297,92.5140781 C17.3870859,92.5140781 16.8109375,92.2752813 16.3859062,91.8504766 Z" id="Combined-Shape"></path>
            </g>
        </g>
    </g>
</svg>